<?xml version="1.0" encoding="UTF-8"?>
<svg width="170px" height="373px" viewBox="0 0 170 373" version="1.1" xmlns="http://www.w3.org/2000/svg" xmlns:xlink="http://www.w3.org/1999/xlink">
    <!-- Generator: Sketch 51.3 (57544) - http://www.bohemiancoding.com/sketch -->
    <title>Group 61</title>
    <desc>Created with Sketch.</desc>
    <defs>
        <polygon id="path-1" points="0.564051167 0.0940490132 81.4566335 0.0940490132 81.4566335 48.4245136 0.564051167 48.4245136"></polygon>
        <polygon id="path-3" points="0.036302448 0.472222222 48.4595925 0.472222222 48.4595925 33.8686042 0.036302448 33.8686042"></polygon>
    </defs>
    <g id="v1" stroke="none" stroke-width="1" fill="none" fill-rule="evenodd">
        <g id="Desktop---Home-Copy-2" transform="translate(-530.000000, -83.000000)">
            <g id="Group-61" transform="translate(530.000000, 83.000000)">
                <path d="M128.824921,314.460996 L109.09681,310 C109.09681,310 103.718528,319.705998 103.095128,320.05096 C102.471727,320.395923 105.116339,333.088985 105.116339,333.088985 L119.071219,336.836535 L130.729971,346.801254 L144.49512,350 L155,343.010584 L154.206229,338.75735 L128.824921,314.460996 Z" id="Fill-1" fill="#B3B3B3"></path>
                <path d="M128.824921,311.463603 L109.09681,307 C109.09681,307 103.718528,316.714902 103.095128,317.048006 C102.471727,317.392868 105.116339,330.093955 105.116339,330.093955 L119.071219,333.832566 L130.729971,343.794357 L144.49512,347 L155,340.004801 L154.206229,335.756736 L128.824921,311.463603 Z" id="Fill-3" fill="#216FAC"></path>
                <path d="M109.666734,298 C108.602325,299.942086 106.941998,301.487009 105.870093,303.465532 C104.164791,306.610034 102.793053,309.568709 105.652714,312.439935 C109.756684,316.553659 117.964624,318.42287 123.252935,315.762978 C131.007377,311.878807 126.888415,306.894242 127.049576,300.142488 L109.666734,298 Z" id="Fill-5" fill="#F58D6C"></path>
                <polygon id="Fill-7" fill="#B3B3B3" points="89.0520988 321 87 341.054896 88.3869618 365.019479 91.2062357 369.577584 108.526252 373 115 362.418136 107.706168 321.007674"></polygon>
                <polygon id="Fill-9" fill="#166EB4" points="89.4135184 318 86 330.607688 86.9838088 338.872132 88.7576458 362.019479 91.537651 366.577584 108.616423 370 115 359.418136 107.807762 318.007674"></polygon>
                <path d="M135.917983,190.372982 C135.18102,189.971538 90.3184064,164 90.3184064,164 L72.8347304,184.477485 L71,196.203483 L133.538207,236 L148.807156,228.957519 L158,213.201784 L156.641225,208.281223 C156.641225,208.281223 144.577296,195.048853 135.917983,190.372982" id="Fill-11" fill="#464540"></path>
                <path d="M46.5106787,164 L34.7783579,188.16381 L34,197.348571 L89.9012814,244 L107.241576,230.095238 L112.876127,222.937143 L114,214.929524 C114,214.929524 82.774561,184.735238 74.1632653,180.16 C73.4304699,179.771429 46.5106787,164 46.5106787,164" id="Fill-13" fill="#5D5C56"></path>
                <path d="M124.286413,94.1641696 C121.736172,83.953067 109.498199,64.7472788 109.11626,64.4563965 C107.182692,62.9755411 101.736078,60.3424895 100.657895,61.1509156 C97.888835,63.2210911 99.0784168,63.8897426 97.2363553,67.274555 C93.7312662,73.7041875 91.021884,81.9886669 92.338779,89.3476118 C92.9315807,92.6795365 97.3915181,100.495582 99.9616516,105.319695 C102.746626,110.555577 98.9471252,114.998143 113.222108,124.185491 L125.849977,141 C138.465911,132.318863 127.815373,112.618197 127.49709,111.163785 C125.527716,102.21821 126.502457,103.049302 124.286413,94.1641696" id="Fill-15" fill="#F58D6C"></path>
                <path d="M110.372165,65.5808065 C106.064469,58.5921671 95.6018416,56.6597729 91.5136948,57.0469964 C87.4217627,57.4491131 89.5566838,87.7083953 89.5566838,87.7083953 L97.4187958,103 C97.4187958,103 122.852368,93.7029128 121.977959,87.410531 C121.107335,81.1255959 113.048387,69.9259009 110.372165,65.5808065" id="Fill-17" fill="#11609E"></path>
                <polygon id="Fill-19" fill="#51504B" points="31 177.956566 34.8259234 197 72.99487 191.987158 108 177.170914 96.1046512 140"></polygon>
                <path d="M60.665449,52.3318286 C40.8301818,53.8632988 24.5115107,65.4619338 25.0111777,68.2771364 C25.014963,68.2883972 32.1352183,118.474077 34.6714071,140.151137 C33.1761913,150.488561 29.5233224,175.34117 29.2999864,175.904211 C29.01987,176.617395 99.5978389,173.700845 100.180784,155.086725 C101.024918,128.334793 109.466263,79.1062826 101.823628,58.6378826 C93.2384402,53.4541561 76.9803348,51.0706178 60.665449,52.3318286" id="Fill-21" fill="#166EB4"></path>
                <path d="M35.5221849,63.1947935 C34.4914032,62.3101642 28.8580617,64.6461981 26.8204701,66.0363298 C26.4249376,66.3043993 12.9009227,85.0041593 9.68472412,95.1869695 C6.88403447,104.040921 7.90682555,103.26352 5.35384311,112.194062 C4.94232951,113.645467 -5.10179858,133.203049 3.41613344,149 L22.6693766,132.66691 C30.2324372,128.845006 30.7598139,112.374052 33.8961069,107.234777 C36.7846926,102.509095 36.4930374,96.5656124 37.3040787,93.241551 C39.1019537,85.8658112 41.638955,76.3072199 38.5506054,69.5939946 C36.9245274,66.0593072 38.1590682,65.446577 35.5221849,63.1947935" id="Fill-23" fill="#F58D6C"></path>
                <path d="M40.3771681,144.499141 C40.3771681,144.499141 25.1641917,132.175072 18.962941,132.002035 C12.7578976,131.840534 -1.2072431,141.322953 2.66901267,149.290338 C6.11668048,156.381004 40.2861406,167.086217 52.7341557,172.077368 C54.2816238,172.700301 55.6811721,173.338615 56.8910797,174 L62,161.968171 C51.444599,157.215426 40.3771681,144.499141 40.3771681,144.499141" id="Fill-25" fill="#FFB288"></path>
                <path d="M110.14975,124.482982 C105.44611,130.874614 109.698609,163.944695 111.259951,177.395111 C111.452176,179.066828 111.558096,180.619684 111.546327,182 L124.868732,180.914918 C124.009601,169.266581 130.070589,153.42745 130.070589,153.42745 C130.070589,153.42745 132.455755,133.819289 129.584141,128.209837 C126.71645,122.600384 115.437913,117.286166 110.14975,124.482982" id="Fill-27" fill="#FFB288"></path>
                <path d="M37.0933239,59.03314 C32.819388,58.6183124 22.4788376,62.0833431 18.9488832,70.2497535 C16.7644271,75.3008898 6.91458781,86.7086493 6.02022715,93.5817736 C5.1337812,100.450831 33.6781325,110 33.6781325,110 L39.6656001,95.2736195 C39.6656001,95.2736195 41.3672597,59.4479676 37.0933239,59.03314" id="Fill-29" fill="#126BB1"></path>
                <path d="M108.265567,219 C103.011931,222.067004 96.5996829,225.278785 92.6566064,230.033593 C82.8103111,241.932044 86.5406591,254.931568 87.4485544,269.024545 C88.3222611,282.60699 89.6138276,296.185625 90.7914324,309.73759 C91.072538,312.880793 91.3954297,316.016375 91.6613404,319.151958 L103.794468,323 L108.622648,317.818478 L113.815505,250.542514 C113.815505,245.349562 113.807907,240.148991 113.823102,234.944609 C113.838297,231.877606 114.252358,228.429608 113.758524,225.400703 C113.116539,221.442173 111.752797,221.270726 108.265567,219" id="Fill-33" fill="#FFB288"></path>
                <path d="M90.3414734,302.448781 C90.3996349,307.597736 88.4439531,312.834844 89.156432,317.959758 C90.0179498,324.142511 96.0085885,326.522651 101.112264,325.905577 C111.457748,324.667424 107.480952,309.156447 106.016009,302 L90.3414734,302.448781 Z" id="Fill-35" fill="#FFB288"></path>
                <path d="M152.046481,209.050262 C151.695786,208.841252 151.333778,208.662644 150.960457,208.514436 C144.127555,205.858108 133.885744,214.16911 128.979781,217.912291 C112.847797,230.186885 114.676692,273.691389 112.018195,288.949127 C111.886213,289.709164 109.510535,299.77205 110.091256,300.148269 L120.774265,307 L127.294181,305.084707 C130.465522,292.848115 158.468353,212.92265 152.046481,209.050262" id="Fill-37" fill="#F58D6C"></path>
                <path d="M79.2603628,170.700552 C77.1379345,169.08176 74.6330192,167.397193 72.6868349,166.19132 C70.6806527,164.945252 63.7096382,163.06336 61.613459,162 L53,165.705317 C53.7424749,172.399736 59.0785446,177.749425 64.9695956,180.585052 C66.7770346,181.454742 69.604439,182.635036 72.1731023,182.83236 C73.9542921,184.586356 75.9304753,185.847041 78.1054018,185.956666 C81.7390291,186.143028 86.4413702,185.7228 90,184.801952 C86.5576163,180.120974 84.9339212,173.897942 79.2603628,170.700552" id="Fill-39" fill="#FFB288"></path>
                <g id="Group-43" transform="translate(88.000000, 140.000000)">
                    <mask id="mask-2" fill="white">
                        <use xlink:href="#path-1"></use>
                    </mask>
                    <g id="Clip-42"></g>
                    <path d="M79.5048239,0.0946076923 L17.4148665,1.38368462 C15.8590213,1.41383846 14.1101151,2.98937692 13.5006477,4.89660769 L0.769973011,45.0389154 C0.164291193,46.9461462 0.940321023,48.4651462 2.4999517,48.4236846 L64.9306051,46.9687615 C66.4902358,46.9310692 68.2429276,45.3706077 68.8410384,43.4633769 L81.2650866,3.46806923 C81.8480554,1.57591538 81.060669,0.0606846154 79.5048239,0.0946076923" id="Fill-41" fill="#ABABAB" mask="url(#mask-2)"></path>
                </g>
                <path d="M88.2101977,186.441498 C87.5919392,188.442254 88.384083,190.038897 89.9760988,189.999278 L153.703103,188.469987 C155.295119,188.426407 157.084204,186.790144 157.690871,184.785426 L158,183.771182 L99.4470476,150 L88.2101977,186.441498 Z" id="Fill-44" fill="#919191"></path>
                <path d="M148.355551,185.001648 L58.4062035,187.287687 C55.9104508,187.353315 53.9335421,189.354967 54.0017114,191.761325 C54.0698806,194.167682 56.1452561,196.070892 58.6485831,195.997973 L148.590357,193.711933 C151.093684,193.646305 153.059231,191.648299 152.998636,189.238295 C152.930467,186.83923 150.851304,184.93602 148.355551,185.001648" id="Fill-46" fill="#919191"></path>
                <path d="M135.419526,158.142947 C133.170204,157.45692 130.490507,159.306212 129.430808,162.274028 C128.37111,165.238116 129.333365,168.18729 131.582686,168.858404 C133.823888,169.540703 136.507646,167.691411 137.567344,164.727323 C138.631103,161.770692 137.664788,158.821518 135.419526,158.142947" id="Fill-48" fill="#CFE0E2"></path>
                <path d="M58.0010375,54.157641 C58.1068455,57.581848 61.7685597,66.2726137 72.092402,67.7638615 C80.5154783,68.9795117 86.3651517,65.5062256 86.4482866,57.2345194 C86.5011906,51.8962298 87,25.7333251 87,25.7333251 L65.9177467,23 C65.9177467,23 57.8952294,50.7372093 58.0010375,54.157641" id="Fill-50" fill="#F58D6C"></path>
                <path d="M96.1441324,10.7832243 C94.0628892,9.02670373 91.5779397,7.70361032 88.7676734,6.87857793 C83.2451279,5.23991914 77.522689,5.96609972 72.8114755,8.45260285 C68.213927,10.8934821 64.5413754,15.01104 62.9030333,20.2577898 C61.6017664,24.4057636 61.7507066,28.6411834 63.0676514,32.4583839 C63.2401085,32.9792569 63.4360824,33.4849219 63.6477343,33.9677749 C64.2983677,35.450552 65.1253778,36.8420813 66.1209254,38.1309568 C66.4423226,50.3391549 68.0689063,58.2739134 84.7698051,60.9543182 C88.3130139,61.5170131 92.440225,56.8025423 95.8697689,51.1641873 C96.3714621,50.3581649 96.8574775,49.5255285 97.312137,48.6928921 C99.7970865,44.1989369 101.776423,39.5338921 102.673984,36.6938036 C104.998235,29.3027301 105.076624,18.3681995 96.1441324,10.7832243" id="Fill-52" fill="#FFB288"></path>
                <g id="Group-56" transform="translate(57.000000, 0.000000)">
                    <mask id="mask-4" fill="white">
                        <use xlink:href="#path-3"></use>
                    </mask>
                    <g id="Clip-55"></g>
                    <path d="M38.8905462,5.13437778 C33.9340077,1.76837778 21.4955462,-2.26628889 15.9660846,3.03771111 C5.91731538,3.4306 1.03993077,11.8701556 0.146623077,19.6259333 C-0.158684615,22.3119333 0.184315385,29.0439333 0.9947,31.6543778 C2.06139231,35.0694889 7.20262308,34.3177111 10.2707769,30.8799333 C13.2107769,27.5894889 10.0295462,24.8354889 14.8579308,23.4112667 C17.1420846,22.7426 18.7703923,23.1732667 20.3610077,20.9632667 C20.7831615,20.3701556 21.0771615,19.6863778 21.3108538,18.9534889 C21.3975462,19.1461556 21.5068538,19.3237111 21.6010846,19.5088222 C27.2323154,28.0466 46.5119308,38.3599333 48.1327,28.5566 C49.5650077,19.8261556 46.2556231,10.1323778 38.8905462,5.13437778" id="Fill-54" fill="#000000" mask="url(#mask-4)"></path>
                </g>
                <path d="M58.5455855,25.9698162 C56.7976183,29.6342953 59.3812671,40.8358486 64.4162484,39.9503342 C64.4162484,39.9503342 65.6941447,30.6463118 64.4684785,27.0103977 C62.8772015,22.280853 59.4404612,24.0804468 58.5455855,25.9698162" id="Fill-57" fill="#FFB288"></path>
            </g>
        </g>
    </g>
</svg>